<svg xmlns="http://www.w3.org/2000/svg" version="1.1" xmlns:xlink="http://www.w3.org/1999/xlink" xmlns:svgjs="http://svgjs.dev/svgjs" viewBox="0 0 1920 1080" style="overflow: hidden; height: 85vh;" class="overflow-hidden rounded-md drop-shadow-lg transition duration-300"><rect width="1920" height="1080" fill="#343a40"/><g clip-path="url(&quot;#SvgjsClipPath1651&quot;)"><g transform="matrix(1.15,0,0,1.15,-137.06306877136217,-81)"><path d="M0,-1080C-3.6752115662479405,-988.8033152603703,-9.781128954488707,-714.5430971080256,-22.051269397487644,-532.8198915622213C-34.32140984048658,-351.09668601641704,-62.980665867914745,-183.6866213673444,-73.62084265799362,10.339233274825233C-84.26101944807249,204.36508791699487,-85.56371687791759,460.4676977077572,-85.8923301379609,631.3352362907965C-86.22094339800421,802.2027748738358,-105.9412600661904,875.9052086186681,-75.59252221825346,1035.544464773061C-45.24378437031653,1195.183720927454,83.60134324661847,1401.7615173459976,96.20009694966072,1589.1707732171542C108.79885065270297,1776.5800290883108,16.03334949161012,2064.8617955361924,0,2160L 1920 2160 L 1920 -1080 Z" fill="url(&quot;#SvgjsLinearGradient1642&quot;)"/><path d="M213.33333333333331,-1080C214.9600989166567,-1024.8622774076964,236.19745804727665,-866.9300581145783,223.0939268332737,-749.1736644461783C209.99039561927077,-631.4172707777784,118.24642727910273,-507.7561067636428,134.71214604931566,-373.4616379896001C151.1778648195286,-239.1671692155574,315.98814628333986,-85.54783096031841,321.8882394545513,56.59314819807781C327.78833262576273,198.73412735647403,197.0211785205876,338.52125829152993,170.11270507658415,479.3842369607772C143.2042316325807,620.2472156300244,161.4487084218631,766.9335299266278,160.43739879053055,901.7710202135613C159.426089159198,1036.6085105004947,141.66556286778854,1129.5870334487724,164.04484728858876,1288.409178682378C186.42413170938897,1447.2313239159837,286.4983576412077,1709.4387547289252,294.7131053153318,1854.7038916151955C302.9278529894559,1999.9690285014658,226.8966286636664,2109.117315269199,213.33333333333331,2160L 1920 2160 L 1920 -1080 Z" fill="url(&quot;#SvgjsLinearGradient1643&quot;)"/><path d="M426.66666666666663,-1080C413.61443839660444,-998.0241056564402,359.993103784935,-732.8360492443796,348.3532970462935,-588.1446339386409C336.713490307652,-443.4532186329022,344.85315139154466,-358.14872093901727,356.82782623481773,-211.85150816556748C368.8025010780908,-65.55429539211767,390.78385146480286,124.65588755110684,420.20134610593186,289.63864270205795C449.61884074706086,454.62139785300906,524.66781214302,605.365844870923,533.3327940815918,778.0450227401392C541.9977760201637,950.7242006093554,496.8497511385578,1166.0400854327142,472.19123773736277,1325.7137099173551C447.53272433616775,1485.387334401996,392.9691421862044,1597.0390546342107,385.3817136744217,1736.086769647985C377.79428516263897,1875.1344846617592,419.7858411679591,2089.347794941331,426.66666666666663,2160L 1920 2160 L 1920 -1080 Z" fill="url(&quot;#SvgjsLinearGradient1644&quot;)"/><path d="M640,-1080C645.3005666002196,-977.1440259187341,673.8163726314183,-678.7583959841896,671.8033996013171,-462.8641555124048C669.7904265712159,-246.96991504062,629.206663317604,10.619630299557485,627.9221618193932,215.36544283070884C626.6376603211824,420.11125536186023,669.889641717851,558.7192387001445,664.0963906120523,765.6107196745032C658.3031395062537,972.502200648862,597.1787202866102,1224.3161152892785,593.1626551846015,1456.7143286768612C589.1465900825928,1689.112542064444,632.1937758641002,2042.7857214461435,640,2160L 1920 2160 L 1920 -1080 Z" fill="url(&quot;#SvgjsLinearGradient1645&quot;)"/><path d="M853.3333333333333,-1080C865.958437883612,-1029.9639428916732,929.4097820803948,-914.8685025110925,929.0839606350055,-779.783657350039C928.7581391896161,-644.6988121889855,880.0392168393487,-430.8425106084014,851.3784046609973,-269.49092903367864C822.7175924826458,-108.13934745895583,753.3726572541555,66.82089808145615,757.1190875648972,188.325832098298C760.865517875639,309.83076611513985,866.4674441617396,326.44213158694197,873.8569865254475,459.53867506737254C881.2465288891553,592.6352185478031,818.9012117777211,840.294472439088,801.4563417471444,986.9050929808814C784.0114717165677,1133.5157135226746,755.8708027376996,1195.352458077499,769.1877663419875,1339.2023983181323C782.5047299462755,1483.0523385587655,867.3338622076475,1713.2051341443696,881.3581233728718,1850.004734424681C895.3823845380961,1986.8043347049922,858.0041316732563,2108.3341224041133,853.3333333333333,2160L 1920 2160 L 1920 -1080 Z" fill="url(&quot;#SvgjsLinearGradient1646&quot;)"/><path d="M1066.6666666666667,-1080C1051.9475806519713,-987.182633405179,974.4641287030751,-690.0688760580485,978.3521505784936,-523.0958004310738C982.2401724539121,-356.12272480409916,1069.30950288648,-245.81965742437467,1089.9947979191777,-78.161546238152C1110.6800929518754,89.49656494807067,1091.0671195751277,305.8368581831844,1102.463920774679,482.8528666862623C1113.8607219742305,659.8688751893402,1171.8941745417392,802.0537874391377,1158.3756051164864,983.9345047803155C1144.8570356912337,1165.8152221214932,1036.6373272981327,1378.1262548633813,1021.3525042231627,1574.1371707333287C1006.0676811481927,1770.1480866032762,1059.114306259416,2062.3561951222214,1066.6666666666667,2160L 1920 2160 L 1920 -1080 Z" fill="url(&quot;#SvgjsLinearGradient1647&quot;)"/><path d="M1280,-1080C1274.090885643369,-996.9275468239828,1257.9816280907348,-730.1491104219391,1244.5453138602131,-581.5652809438968C1231.1089996296914,-432.98145146585455,1198.4529486402332,-297.4739397704579,1199.3821146168702,-188.49702313174612C1200.3112805935073,-79.52010649303433,1250.4236465719123,-34.71423226381354,1250.1203097200348,72.29621888837397C1249.8169728681573,179.30667004056147,1204.5251905892783,306.7739634057774,1197.562093505605,453.565683781379C1190.5989964219316,600.3574041569806,1189.2622774042538,808.3242403100198,1208.341727217995,953.0465411419832C1227.421177031736,1097.7688419739466,1288.1768251507422,1180.908923105053,1312.0387923880514,1321.8994887731594C1335.9007596253607,1462.8900544412659,1356.8533293731923,1659.3065166128154,1351.5135306418504,1798.9899351506222C1346.1737319105084,1938.673353688429,1291.9189217736416,2099.831655858437,1280,2160L 1920 2160 L 1920 -1080 Z" fill="url(&quot;#SvgjsLinearGradient1648&quot;)"/><path d="M1493.3333333333333,-1080C1486.457275189126,-958.240429255505,1468.4403150810372,-552.6805976675442,1452.0769844680894,-349.4425755330302C1435.7136538551417,-146.20455339851614,1374.8873021233005,-49.05775638274079,1395.1533496556465,139.42813280708452C1415.4193971879924,327.9140219969098,1541.9463445033173,552.3537964735746,1573.6732696621652,781.4727596059216C1605.4001948210132,1010.5917227382687,1598.9048899968725,1284.3873715354873,1585.5149006087338,1514.141911601167C1572.124911220595,1743.8964516668468,1508.6969278792333,2052.356985266861,1493.3333333333333,2160L 1920 2160 L 1920 -1080 Z" fill="url(&quot;#SvgjsLinearGradient1649&quot;)"/><path d="M1706.6666666666665,-1080C1705.4413808103748,-1012.4035248917385,1683.694118804969,-795.1104245375836,1699.3149515289163,-674.4211493504306C1714.9357842528634,-553.7318741632776,1802.1297303758433,-507.7561555237195,1800.3916630103497,-355.86434887708197C1798.653595644856,-203.97254223044442,1703.3635387222148,97.42314695364485,1688.886547335955,236.9296905293948C1674.409555949695,376.43623410514476,1700.6444704298772,362.9210481600155,1713.5297146927896,481.1749125774178C1726.414958955702,599.42877699482,1761.0100823964965,790.1243578953826,1766.1980129134292,946.4528770338084C1771.385943430362,1102.781396172234,1753.2718728841799,1293.7277864807472,1744.6572977943865,1419.1460274079725C1736.0427227045932,1544.5642683351978,1720.8423342292897,1575.4866604984886,1714.5105623746697,1698.96232259716C1708.1787905200497,1822.4379846958313,1707.9739826180003,2083.160387099527,1706.6666666666665,2160L 1920 2160 L 1920 -1080 Z" fill="url(&quot;#SvgjsLinearGradient1650&quot;)"/></g></g><defs><linearGradient x1="0.1" y1="0" x2="0" y2="1" id="SvgjsLinearGradient1642"><stop stop-color="#343a40" offset="0"/><stop stop-color="#343c40" offset="0"/></linearGradient><linearGradient x1="0.1" y1="0" x2="0" y2="1" id="SvgjsLinearGradient1643"><stop stop-color="#2e3439" offset="0"/><stop stop-color="#2e3639" offset="0.1111111111111111"/></linearGradient><linearGradient x1="0.1" y1="0" x2="0" y2="1" id="SvgjsLinearGradient1644"><stop stop-color="#292d32" offset="0"/><stop stop-color="#292e32" offset="0.2222222222222222"/></linearGradient><linearGradient x1="0.1" y1="0" x2="0" y2="1" id="SvgjsLinearGradient1645"><stop stop-color="#23272b" offset="0"/><stop stop-color="#23282b" offset="0.3333333333333333"/></linearGradient><linearGradient x1="0.1" y1="0" x2="0" y2="1" id="SvgjsLinearGradient1646"><stop stop-color="#1d2124" offset="0"/><stop stop-color="#1d2224" offset="0.4444444444444444"/></linearGradient><linearGradient x1="0.1" y1="0" x2="0" y2="1" id="SvgjsLinearGradient1647"><stop stop-color="#181a1d" offset="0"/><stop stop-color="#181b1d" offset="0.5555555555555556"/></linearGradient><linearGradient x1="0.1" y1="0" x2="0" y2="1" id="SvgjsLinearGradient1648"><stop stop-color="#121416" offset="0"/><stop stop-color="#121516" offset="0.6666666666666666"/></linearGradient><linearGradient x1="0.1" y1="0" x2="0" y2="1" id="SvgjsLinearGradient1649"><stop stop-color="#0c0e0f" offset="0"/><stop stop-color="#0c0e0f" offset="0.7777777777777778"/></linearGradient><linearGradient x1="0.1" y1="0" x2="0" y2="1" id="SvgjsLinearGradient1650"><stop stop-color="#070708" offset="0"/><stop stop-color="#070708" offset="0.8888888888888888"/></linearGradient><clipPath id="SvgjsClipPath1651"><rect width="1920" height="1080"/></clipPath></defs></svg>